<svg id="visual" viewBox="0 0 900 600" width="900" height="600" xmlns="http://www.w3.org/2000/svg" xmlns:xlink="http://www.w3.org/1999/xlink" version="1.1"><g stroke-width="1" stroke-linejoin="bevel"><path d="M404 308L425 411L477 407Z" fill="#d01ca9" stroke="#d01ca9"></path><path d="M477 407L527 322L404 308Z" fill="#270d29" stroke="#270d29"></path><path d="M425 411L508 465L477 407Z" fill="#5d1a5a" stroke="#5d1a5a"></path><path d="M477 407L597 469L527 322Z" fill="#d01ca9" stroke="#d01ca9"></path><path d="M404 308L299 333L425 411Z" fill="#5d1a5a" stroke="#5d1a5a"></path><path d="M425 411L375 494L508 465Z" fill="#4a1649" stroke="#4a1649"></path><path d="M278 399L375 494L425 411Z" fill="#4a1649" stroke="#4a1649"></path><path d="M597 469L605 327L527 322Z" fill="#881f7a" stroke="#881f7a"></path><path d="M527 322L492 197L404 308Z" fill="#19021a" stroke="#19021a"></path><path d="M618 221L492 197L527 322Z" fill="#b71f9a" stroke="#b71f9a"></path><path d="M404 308L288 209L299 333Z" fill="#19021a" stroke="#19021a"></path><path d="M299 333L278 399L425 411Z" fill="#5d1a5a" stroke="#5d1a5a"></path><path d="M503 600L597 469L508 465Z" fill="#b71f9a" stroke="#b71f9a"></path><path d="M508 465L597 469L477 407Z" fill="#b71f9a" stroke="#b71f9a"></path><path d="M492 197L362 180L404 308Z" fill="#19021a" stroke="#19021a"></path><path d="M597 469L639 366L605 327Z" fill="#5d1a5a" stroke="#5d1a5a"></path><path d="M605 327L618 221L527 322Z" fill="#721d6a" stroke="#721d6a"></path><path d="M362 180L288 209L404 308Z" fill="#881f7a" stroke="#881f7a"></path><path d="M299 333L217 330L278 399Z" fill="#270d29" stroke="#270d29"></path><path d="M682 322L618 221L605 327Z" fill="#721d6a" stroke="#721d6a"></path><path d="M278 399L308 529L375 494Z" fill="#d01ca9" stroke="#d01ca9"></path><path d="M375 494L430 600L508 465Z" fill="#881f7a" stroke="#881f7a"></path><path d="M218 227L217 330L299 333Z" fill="#ea15b8" stroke="#ea15b8"></path><path d="M278 399L231 487L308 529Z" fill="#b71f9a" stroke="#b71f9a"></path><path d="M730 438L682 322L639 366Z" fill="#b71f9a" stroke="#b71f9a"></path><path d="M639 366L682 322L605 327Z" fill="#19021a" stroke="#19021a"></path><path d="M362 180L327 139L288 209Z" fill="#d01ca9" stroke="#d01ca9"></path><path d="M288 209L218 227L299 333Z" fill="#4a1649" stroke="#4a1649"></path><path d="M390 91L327 139L362 180Z" fill="#19021a" stroke="#19021a"></path><path d="M390 91L362 180L492 197Z" fill="#721d6a" stroke="#721d6a"></path><path d="M308 529L430 600L375 494Z" fill="#9f208a" stroke="#9f208a"></path><path d="M430 600L503 600L508 465Z" fill="#721d6a" stroke="#721d6a"></path><path d="M180 393L231 487L278 399Z" fill="#721d6a" stroke="#721d6a"></path><path d="M308 529L290 600L430 600Z" fill="#721d6a" stroke="#721d6a"></path><path d="M171 63L218 227L288 209Z" fill="#881f7a" stroke="#881f7a"></path><path d="M510 76L390 91L492 197Z" fill="#9f208a" stroke="#9f208a"></path><path d="M682 322L677 214L618 221Z" fill="#881f7a" stroke="#881f7a"></path><path d="M618 221L510 76L492 197Z" fill="#9f208a" stroke="#9f208a"></path><path d="M217 330L180 393L278 399Z" fill="#881f7a" stroke="#881f7a"></path><path d="M80 298L180 393L217 330Z" fill="#270d29" stroke="#270d29"></path><path d="M635 84L510 76L618 221Z" fill="#5d1a5a" stroke="#5d1a5a"></path><path d="M608 600L698 497L597 469Z" fill="#5d1a5a" stroke="#5d1a5a"></path><path d="M597 469L730 438L639 366Z" fill="#b71f9a" stroke="#b71f9a"></path><path d="M829 236L707 124L677 214Z" fill="#9f208a" stroke="#9f208a"></path><path d="M205 600L308 529L231 487Z" fill="#ea15b8" stroke="#ea15b8"></path><path d="M205 600L290 600L308 529Z" fill="#d01ca9" stroke="#d01ca9"></path><path d="M503 600L608 600L597 469Z" fill="#881f7a" stroke="#881f7a"></path><path d="M698 497L730 438L597 469Z" fill="#19021a" stroke="#19021a"></path><path d="M677 214L635 84L618 221Z" fill="#19021a" stroke="#19021a"></path><path d="M98 486L205 600L231 487Z" fill="#19021a" stroke="#19021a"></path><path d="M794 278L677 214L682 322Z" fill="#721d6a" stroke="#721d6a"></path><path d="M677 214L707 124L635 84Z" fill="#19021a" stroke="#19021a"></path><path d="M839 393L794 278L682 322Z" fill="#721d6a" stroke="#721d6a"></path><path d="M510 76L396 0L390 91Z" fill="#5d1a5a" stroke="#5d1a5a"></path><path d="M390 91L306 0L327 139Z" fill="#ea15b8" stroke="#ea15b8"></path><path d="M171 63L110 191L218 227Z" fill="#ea15b8" stroke="#ea15b8"></path><path d="M539 0L396 0L510 76Z" fill="#4a1649" stroke="#4a1649"></path><path d="M832 474L839 393L730 438Z" fill="#881f7a" stroke="#881f7a"></path><path d="M730 438L839 393L682 322Z" fill="#381239" stroke="#381239"></path><path d="M608 600L709 600L698 497Z" fill="#881f7a" stroke="#881f7a"></path><path d="M587 0L510 76L635 84Z" fill="#381239" stroke="#381239"></path><path d="M587 0L539 0L510 76Z" fill="#270d29" stroke="#270d29"></path><path d="M110 191L80 298L218 227Z" fill="#19021a" stroke="#19021a"></path><path d="M218 227L80 298L217 330Z" fill="#270d29" stroke="#270d29"></path><path d="M180 393L98 486L231 487Z" fill="#19021a" stroke="#19021a"></path><path d="M62 368L98 486L180 393Z" fill="#881f7a" stroke="#881f7a"></path><path d="M171 63L288 209L327 139Z" fill="#19021a" stroke="#19021a"></path><path d="M670 0L587 0L635 84Z" fill="#d01ca9" stroke="#d01ca9"></path><path d="M396 0L306 0L390 91Z" fill="#270d29" stroke="#270d29"></path><path d="M80 298L62 368L180 393Z" fill="#d01ca9" stroke="#d01ca9"></path><path d="M832 474L730 438L698 497Z" fill="#d01ca9" stroke="#d01ca9"></path><path d="M794 278L829 236L677 214Z" fill="#d01ca9" stroke="#d01ca9"></path><path d="M707 124L670 0L635 84Z" fill="#19021a" stroke="#19021a"></path><path d="M900 321L829 236L794 278Z" fill="#9f208a" stroke="#9f208a"></path><path d="M306 0L171 63L327 139Z" fill="#9f208a" stroke="#9f208a"></path><path d="M774 600L832 474L698 497Z" fill="#d01ca9" stroke="#d01ca9"></path><path d="M709 600L774 600L698 497Z" fill="#270d29" stroke="#270d29"></path><path d="M110 191L0 263L80 298Z" fill="#721d6a" stroke="#721d6a"></path><path d="M80 298L0 377L62 368Z" fill="#d01ca9" stroke="#d01ca9"></path><path d="M171 63L94 134L110 191Z" fill="#d01ca9" stroke="#d01ca9"></path><path d="M815 0L670 0L707 124Z" fill="#ea15b8" stroke="#ea15b8"></path><path d="M0 533L92 600L98 486Z" fill="#b71f9a" stroke="#b71f9a"></path><path d="M98 486L92 600L205 600Z" fill="#5d1a5a" stroke="#5d1a5a"></path><path d="M306 0L196 0L171 63Z" fill="#881f7a" stroke="#881f7a"></path><path d="M171 63L137 0L94 134Z" fill="#381239" stroke="#381239"></path><path d="M829 236L814 122L707 124Z" fill="#19021a" stroke="#19021a"></path><path d="M0 263L0 377L80 298Z" fill="#5d1a5a" stroke="#5d1a5a"></path><path d="M62 368L0 377L98 486Z" fill="#4a1649" stroke="#4a1649"></path><path d="M900 427L900 321L839 393Z" fill="#4a1649" stroke="#4a1649"></path><path d="M839 393L900 321L794 278Z" fill="#721d6a" stroke="#721d6a"></path><path d="M829 236L900 196L814 122Z" fill="#270d29" stroke="#270d29"></path><path d="M0 190L0 263L110 191Z" fill="#881f7a" stroke="#881f7a"></path><path d="M832 474L900 427L839 393Z" fill="#4a1649" stroke="#4a1649"></path><path d="M900 465L900 427L832 474Z" fill="#270d29" stroke="#270d29"></path><path d="M900 600L900 465L832 474Z" fill="#881f7a" stroke="#881f7a"></path><path d="M196 0L137 0L171 63Z" fill="#381239" stroke="#381239"></path><path d="M94 134L0 190L110 191Z" fill="#d01ca9" stroke="#d01ca9"></path><path d="M0 134L0 190L94 134Z" fill="#5d1a5a" stroke="#5d1a5a"></path><path d="M900 321L900 196L829 236Z" fill="#881f7a" stroke="#881f7a"></path><path d="M0 377L0 533L98 486Z" fill="#19021a" stroke="#19021a"></path><path d="M0 0L0 134L94 134Z" fill="#381239" stroke="#381239"></path><path d="M900 196L900 133L814 122Z" fill="#9f208a" stroke="#9f208a"></path><path d="M814 122L815 0L707 124Z" fill="#b71f9a" stroke="#b71f9a"></path><path d="M900 0L815 0L814 122Z" fill="#881f7a" stroke="#881f7a"></path><path d="M0 533L0 600L92 600Z" fill="#5d1a5a" stroke="#5d1a5a"></path><path d="M774 600L900 600L832 474Z" fill="#9f208a" stroke="#9f208a"></path><path d="M137 0L0 0L94 134Z" fill="#881f7a" stroke="#881f7a"></path><path d="M900 133L900 0L814 122Z" fill="#4a1649" stroke="#4a1649"></path></g></svg>