<svg id="visual" viewBox="0 0 960 540" width="960" height="540" xmlns="http://www.w3.org/2000/svg" xmlns:xlink="http://www.w3.org/1999/xlink" version="1.1"><g stroke-width="1" stroke-linejoin="bevel"><path d="M417.7 268L438.7 167L353 142Z" fill="#1d4e6b" stroke="#1d4e6b"></path><path d="M438.7 167L406.7 109L353 142Z" fill="#19435d" stroke="#19435d"></path><path d="M353 142L286 267L417.7 268Z" fill="#081a28" stroke="#081a28"></path><path d="M286 267L412.7 376L417.7 268Z" fill="#277297" stroke="#277297"></path><path d="M556.3 231L554.3 187L438.7 167Z" fill="#246688" stroke="#246688"></path><path d="M406.7 109L283 66L353 142Z" fill="#19435d" stroke="#19435d"></path><path d="M353 142L228.3 126L286 267Z" fill="#0c2435" stroke="#0c2435"></path><path d="M283 66L228.3 126L353 142Z" fill="#19435d" stroke="#19435d"></path><path d="M556.3 231L438.7 167L417.7 268Z" fill="#081a28" stroke="#081a28"></path><path d="M438.7 167L560.3 79L406.7 109Z" fill="#15384f" stroke="#15384f"></path><path d="M557.3 379L556.3 231L417.7 268Z" fill="#15384f" stroke="#15384f"></path><path d="M228.3 126L197.3 233L286 267Z" fill="#15384f" stroke="#15384f"></path><path d="M286 267L308 396L412.7 376Z" fill="#00101c" stroke="#00101c"></path><path d="M173.3 364L308 396L286 267Z" fill="#0c2435" stroke="#0c2435"></path><path d="M119.7 145L182.3 154L82.7 71Z" fill="#081a28" stroke="#081a28"></path><path d="M228.3 126L182.3 154L197.3 233Z" fill="#277297" stroke="#277297"></path><path d="M416.7 0L363 0L406.7 109Z" fill="#205a7a" stroke="#205a7a"></path><path d="M406.7 109L363 0L283 66Z" fill="#277297" stroke="#277297"></path><path d="M560.3 79L416.7 0L406.7 109Z" fill="#19435d" stroke="#19435d"></path><path d="M599 109L560.3 79L554.3 187Z" fill="#246688" stroke="#246688"></path><path d="M554.3 187L560.3 79L438.7 167Z" fill="#205a7a" stroke="#205a7a"></path><path d="M308 396L366 432L412.7 376Z" fill="#081a28" stroke="#081a28"></path><path d="M412.7 376L557.3 379L417.7 268Z" fill="#1d4e6b" stroke="#1d4e6b"></path><path d="M366 432L384.7 441L412.7 376Z" fill="#277297" stroke="#277297"></path><path d="M635 206L599 109L554.3 187Z" fill="#246688" stroke="#246688"></path><path d="M363 0L256.3 0L283 66Z" fill="#0c2435" stroke="#0c2435"></path><path d="M283 66L256.3 0L228.3 126Z" fill="#297ea6" stroke="#297ea6"></path><path d="M182.3 154L140.7 254L197.3 233Z" fill="#00101c" stroke="#00101c"></path><path d="M197.3 233L173.3 364L286 267Z" fill="#19435d" stroke="#19435d"></path><path d="M495.3 485L557.3 379L412.7 376Z" fill="#1d4e6b" stroke="#1d4e6b"></path><path d="M556.3 231L635 206L554.3 187Z" fill="#081a28" stroke="#081a28"></path><path d="M674 243L635 206L556.3 231Z" fill="#297ea6" stroke="#297ea6"></path><path d="M140.7 254L173.3 364L197.3 233Z" fill="#1d4e6b" stroke="#1d4e6b"></path><path d="M308 396L248.3 435L366 432Z" fill="#205a7a" stroke="#205a7a"></path><path d="M366 432L335 540L384.7 441Z" fill="#277297" stroke="#277297"></path><path d="M173.3 364L248.3 435L308 396Z" fill="#1d4e6b" stroke="#1d4e6b"></path><path d="M82.7 71L182.3 154L228.3 126Z" fill="#15384f" stroke="#15384f"></path><path d="M182.3 154L119.7 145L140.7 254Z" fill="#277297" stroke="#277297"></path><path d="M619 0L560.3 79L599 109Z" fill="#00101c" stroke="#00101c"></path><path d="M619 0L562.3 0L560.3 79Z" fill="#246688" stroke="#246688"></path><path d="M560.3 79L562.3 0L416.7 0Z" fill="#246688" stroke="#246688"></path><path d="M599 480L610 363L557.3 379Z" fill="#297ea6" stroke="#297ea6"></path><path d="M557.3 379L610 363L556.3 231Z" fill="#081a28" stroke="#081a28"></path><path d="M610 363L674 243L556.3 231Z" fill="#112e42" stroke="#112e42"></path><path d="M635 206L701.7 98L599 109Z" fill="#205a7a" stroke="#205a7a"></path><path d="M140.7 254L146.7 392L173.3 364Z" fill="#15384f" stroke="#15384f"></path><path d="M173.3 364L146.7 392L248.3 435Z" fill="#246688" stroke="#246688"></path><path d="M135.7 467L146.7 392L0 368Z" fill="#0c2435" stroke="#0c2435"></path><path d="M431.7 540L495.3 485L384.7 441Z" fill="#112e42" stroke="#112e42"></path><path d="M384.7 441L495.3 485L412.7 376Z" fill="#297ea6" stroke="#297ea6"></path><path d="M701.7 98L619 0L599 109Z" fill="#1d4e6b" stroke="#1d4e6b"></path><path d="M256.3 0L82.7 71L228.3 126Z" fill="#297ea6" stroke="#297ea6"></path><path d="M119.7 145L0 247L140.7 254Z" fill="#205a7a" stroke="#205a7a"></path><path d="M237.3 540L335 540L248.3 435Z" fill="#1d4e6b" stroke="#1d4e6b"></path><path d="M248.3 435L335 540L366 432Z" fill="#1d4e6b" stroke="#1d4e6b"></path><path d="M335 540L431.7 540L384.7 441Z" fill="#00101c" stroke="#00101c"></path><path d="M737.7 139L701.7 98L635 206Z" fill="#112e42" stroke="#112e42"></path><path d="M610 363L713.7 290L674 243Z" fill="#277297" stroke="#277297"></path><path d="M674 243L737.7 139L635 206Z" fill="#297ea6" stroke="#297ea6"></path><path d="M718.7 336L713.7 290L610 363Z" fill="#15384f" stroke="#15384f"></path><path d="M555.3 540L599 480L495.3 485Z" fill="#19435d" stroke="#19435d"></path><path d="M495.3 485L599 480L557.3 379Z" fill="#277297" stroke="#277297"></path><path d="M146.7 392L135.7 467L248.3 435Z" fill="#112e42" stroke="#112e42"></path><path d="M0 368L146.7 392L140.7 254Z" fill="#0c2435" stroke="#0c2435"></path><path d="M256.3 0L84.7 0L82.7 71Z" fill="#112e42" stroke="#112e42"></path><path d="M778.7 429L718.7 336L610 363Z" fill="#205a7a" stroke="#205a7a"></path><path d="M816.3 249L737.7 139L674 243Z" fill="#19435d" stroke="#19435d"></path><path d="M135.7 467L237.3 540L248.3 435Z" fill="#112e42" stroke="#112e42"></path><path d="M816.3 249L674 243L713.7 290Z" fill="#00101c" stroke="#00101c"></path><path d="M701.7 98L722.7 0L619 0Z" fill="#246688" stroke="#246688"></path><path d="M599 480L778.7 429L610 363Z" fill="#205a7a" stroke="#205a7a"></path><path d="M431.7 540L555.3 540L495.3 485Z" fill="#15384f" stroke="#15384f"></path><path d="M0 74L0 170L82.7 71Z" fill="#277297" stroke="#277297"></path><path d="M82.7 71L0 170L119.7 145Z" fill="#246688" stroke="#246688"></path><path d="M0 170L0 247L119.7 145Z" fill="#0c2435" stroke="#0c2435"></path><path d="M737.7 139L722.7 0L701.7 98Z" fill="#1d4e6b" stroke="#1d4e6b"></path><path d="M0 0L0 74L82.7 71Z" fill="#0c2435" stroke="#0c2435"></path><path d="M555.3 540L622 540L599 480Z" fill="#19435d" stroke="#19435d"></path><path d="M0 247L0 368L140.7 254Z" fill="#081a28" stroke="#081a28"></path><path d="M0 491L110.7 540L135.7 467Z" fill="#081a28" stroke="#081a28"></path><path d="M135.7 467L110.7 540L237.3 540Z" fill="#112e42" stroke="#112e42"></path><path d="M84.7 0L0 0L82.7 71Z" fill="#15384f" stroke="#15384f"></path><path d="M718.7 336L816.3 249L713.7 290Z" fill="#112e42" stroke="#112e42"></path><path d="M737.7 139L898.3 82L722.7 0Z" fill="#1d4e6b" stroke="#1d4e6b"></path><path d="M834.3 398L816.3 249L718.7 336Z" fill="#15384f" stroke="#15384f"></path><path d="M622 540L778.7 429L599 480Z" fill="#081a28" stroke="#081a28"></path><path d="M0 368L0 491L135.7 467Z" fill="#00101c" stroke="#00101c"></path><path d="M829.3 441L834.3 398L778.7 429Z" fill="#15384f" stroke="#15384f"></path><path d="M778.7 429L834.3 398L718.7 336Z" fill="#081a28" stroke="#081a28"></path><path d="M0 491L0 540L110.7 540Z" fill="#205a7a" stroke="#205a7a"></path><path d="M787.7 540L829.3 441L778.7 429Z" fill="#297ea6" stroke="#297ea6"></path><path d="M960 226L893.3 171L816.3 249Z" fill="#00101c" stroke="#00101c"></path><path d="M816.3 249L893.3 171L737.7 139Z" fill="#112e42" stroke="#112e42"></path><path d="M960 226L816.3 249L960 347Z" fill="#0c2435" stroke="#0c2435"></path><path d="M622 540L787.7 540L778.7 429Z" fill="#0c2435" stroke="#0c2435"></path><path d="M893.3 171L898.3 82L737.7 139Z" fill="#00101c" stroke="#00101c"></path><path d="M898.3 82L882.3 0L722.7 0Z" fill="#112e42" stroke="#112e42"></path><path d="M893.3 171L960 100L898.3 82Z" fill="#15384f" stroke="#15384f"></path><path d="M898.3 82L960 0L882.3 0Z" fill="#00101c" stroke="#00101c"></path><path d="M960 347L816.3 249L834.3 398Z" fill="#205a7a" stroke="#205a7a"></path><path d="M960 347L834.3 398L960 417Z" fill="#15384f" stroke="#15384f"></path><path d="M960 226L960 165L893.3 171Z" fill="#277297" stroke="#277297"></path><path d="M960 165L960 100L893.3 171Z" fill="#19435d" stroke="#19435d"></path><path d="M960 417L834.3 398L829.3 441Z" fill="#19435d" stroke="#19435d"></path><path d="M787.7 540L891.3 540L829.3 441Z" fill="#205a7a" stroke="#205a7a"></path><path d="M960 100L960 0L898.3 82Z" fill="#297ea6" stroke="#297ea6"></path><path d="M891.3 540L960 417L829.3 441Z" fill="#277297" stroke="#277297"></path><path d="M891.3 540L960 540L960 417Z" fill="#112e42" stroke="#112e42"></path></g></svg>